Coordinates
version=1
nRows=16
nColumns=42
inDegrees=yes

Units are S.I. units (second, meters, Newtons, ...)
If the header above contains a line with 'inDegrees', this indicates whether rotational values are in degrees (yes) or radians (no).

endheader
time	pelvis_tilt	pelvis_list	pelvis_rotation	pelvis_tx	pelvis_ty	pelvis_tz	hip_flexion_r	hip_adduction_r	hip_rotation_r	knee_angle_r	knee_adduction_r	knee_angle_r_beta	ankle_angle_r	subtalar_angle_r	mtp_angle_r	hip_flexion_l	hip_adduction_l	hip_rotation_l	knee_angle_l	knee_adduction_l	knee_angle_l_beta	ankle_angle_l	subtalar_angle_l	mtp_angle_l	lumbar_extension	lumbar_bending	lumbar_rotation	arm_flex_r	arm_add_r	arm_rot_r	elbow_flex_r	pro_sup_r	wrist_flex_r	wrist_dev_r	arm_flex_l	arm_add_l	arm_rot_l	elbow_flex_l	pro_sup_l	wrist_flex_l	wrist_dev_l
      0.37000000	      0.65671056	     -4.49403827	     -2.15633842	     -0.55200119	      0.95637111	     -0.22579885	    -15.06503434	      6.58720605	      4.61598718	      5.17089593	      0.65755803	      0.09024916	     14.04226902	     -2.58985334	     -8.02806515	     24.25560593	     -6.95715306	    -10.58782148	      6.77556722	      1.86238083	      0.11825596	      1.52665190	      3.52850264	     -8.02806515	    -13.02398536	      4.56432267	     10.07739986	     -2.65748625	    -14.81545328	      3.22705167	     52.04608037	     90.00000001	      0.00000000	      0.00000000	     -6.79244879	    -13.14678814	      1.60147731	     40.30206150	     90.00000001	      0.00000000	      0.00000000
      0.38000000	      0.51639366	     -4.70574811	     -2.31541420	     -0.53752577	      0.95317055	     -0.22516155	    -15.84075945	      6.80371206	      4.66235636	      5.32065218	      0.60447096	      0.09286290	     14.48970650	     -2.53311488	     -8.02145556	     24.51834048	     -7.18786392	    -10.30690530	      5.58126582	      1.98286664	      0.09741146	      1.56412902	      4.80435807	     -8.02145556	    -12.86505020	      4.59509073	     10.37844670	     -2.42735785	    -14.77543579	      3.22778804	     52.41245820	     90.00000001	      0.00000000	      0.00000000	     -6.88411715	    -13.11829328	      1.27044540	     38.86282035	     90.00000001	      0.00000000	      0.00000000
      0.39000000	      0.48166765	     -4.80642510	     -2.51047060	     -0.52293153	      0.95031213	     -0.22470998	    -16.65998769	      6.83901315	      4.77296088	      5.61769624	      0.61072939	      0.09804730	     14.81248852	     -2.45277436	     -8.01453662	     24.67678298	     -7.25111597	    -10.05579814	      4.90367668	      1.94989263	      0.08558530	      1.69005677	      5.81538778	     -8.01453662	    -12.83216576	      4.50371162	     10.66969628	     -2.18941406	    -14.69539627	      3.15276534	     52.67167343	     90.00000001	      0.00000000	      0.00000000	     -6.89232245	    -13.01715915	      0.83616669	     37.26659405	     90.00000001	      0.00000000	      0.00000000
      0.40000000	      0.47157994	     -4.76658693	     -2.71410692	     -0.50820361	      0.94770462	     -0.22429174	    -17.41128001	      6.72500368	      4.87631908	      6.10234416	      0.59213982	      0.10650600	     15.02132693	     -2.39782596	     -8.00776822	     24.85482842	     -7.16168439	     -9.89148700	      4.81265659	      1.85382948	      0.08399670	      1.78766984	      6.36464751	     -8.00776822	    -12.81553706	      4.23904376	     10.89040311	     -1.93640702	    -14.53489049	      3.04577782	     52.81521501	     90.00000001	      0.00000000	      0.00000000	     -6.90862219	    -12.94459768	      0.38490613	     35.72189854	     90.00000001	      0.00000000	      0.00000000
      0.41000000	      0.54984944	     -4.48469904	     -3.08800351	     -0.49312117	      0.94553576	     -0.22403148	    -18.16311613	      6.20649192	      4.98079856	      6.76297910	      0.70025834	      0.11803625	     15.10549158	     -2.26391350	     -7.99049073	     24.85976233	     -6.81279234	     -9.95957040	      5.12217418	      1.59834132	      0.08939880	      1.76678507	      6.74280346	     -7.99049073	    -12.87751045	      3.69025256	     11.24376666	     -1.78599332	    -14.32116473	      2.77177137	     52.88745131	     90.00000001	      0.00000000	      0.00000000	     -6.83041987	    -12.64615422	     -0.86859091	     34.03103071	     90.00000001	      0.00000000	      0.00000000
      0.42000000	      0.55172304	     -4.31247780	     -3.24170001	     -0.47810612	      0.94346929	     -0.22363756	    -18.74386431	      5.98400296	      5.15347584	      7.60556999	      0.62617699	      0.13274224	     15.02514353	     -2.25512066	     -7.98524628	     25.03872811	     -6.54427208	     -9.54004512	      5.93397545	      1.41552636	      0.10356741	      1.69656967	      6.59170237	     -7.98524628	    -12.86547935	      3.23139520	     11.29442879	     -1.54213194	    -14.06784409	      2.75288679	     52.78344690	     90.00000001	      0.00000000	      0.00000000	     -6.99209950	    -12.74014651	     -1.05440140	     32.88554335	     90.00000001	      0.00000000	      0.00000000
      0.43000000	      0.60977464	     -3.94772475	     -3.42686781	     -0.46278905	      0.94189607	     -0.22357129	    -19.19464854	      5.46037343	      5.07580421	      8.78102603	      0.68232107	      0.15325782	     14.74795286	     -2.46576341	     -7.97801612	     25.16546972	     -6.02307869	     -9.35539479	      7.15593755	      1.12094238	      0.12489467	      1.39806751	      5.94757315	     -7.97801612	    -12.86839728	      2.58914164	     11.37530516	     -1.36965008	    -13.74306846	      2.58008700	     52.45840658	     90.00000001	      0.00000000	      0.00000000	     -6.87196478	    -12.67550736	     -1.47455932	     31.11931628	     90.00000001	      0.00000000	      0.00000000
      0.44000000	      0.51174033	     -3.32175419	     -3.72434709	     -0.44725091	      0.94054743	     -0.22364835	    -19.24258118	      4.59937481	      4.99410469	     10.38193892	      0.79267643	      0.18119902	     14.42985602	     -2.59530155	     -7.95483105	     25.22581053	     -5.22795725	     -8.80131099	      8.24393651	      0.83832583	      0.14388384	      0.42821500	      4.43006766	     -7.95483105	    -12.66783453	      1.65250894	     11.45709785	     -1.31869655	    -13.32827437	      2.23486952	     52.14874185	     90.00000001	      0.00000000	      0.00000000	     -6.73439109	    -12.34546158	     -3.33465871	     29.38546544	     90.00000001	      0.00000000	      0.00000000
      0.45000000	      0.68653615	     -2.88938741	     -3.77134580	     -0.43146919	      0.93984370	     -0.22371485	    -19.54965485	      4.06091040	      4.87496130	     12.03593741	      0.80437720	      0.21006674	     13.51944933	     -2.89784393	     -7.94729300	     25.21074089	     -4.59322180	     -8.53130160	      9.95003722	      0.55860993	      0.17366091	     -0.11718444	      3.56553659	     -7.94729300	    -12.76616578	      0.90316464	     11.28977982	     -1.22248376	    -12.94311557	      2.15709329	     51.68278063	     90.00000001	      0.00000000	      0.00000000	     -6.81635763	    -12.42332785	     -3.60106128	     28.15361074	     90.00000001	      0.00000000	      0.00000000
      0.46000000	      0.54909271	     -2.20227653	     -3.83952805	     -0.41569292	      0.93924795	     -0.22409703	    -19.16348467	      3.22154642	      4.55945455	     14.29943273	      0.90951211	      0.24957218	     12.52833721	     -3.31990571	     -7.91010373	     25.25919809	     -3.62889016	     -7.45631287	     11.26868384	      0.37384535	      0.19667564	     -1.60794964	      1.14668689	     -7.91010373	    -12.50120160	     -0.09090807	     11.04111967	     -1.22391370	    -12.47371057	      1.94040192	     51.15384305	     90.00000001	      0.00000000	      0.00000000	     -6.73012068	    -12.17190579	     -5.55410415	     26.67896945	     90.00000001	      0.00000000	      0.00000000
      0.47000000	      0.63077498	     -1.52266934	     -3.86457707	     -0.39953296	      0.93929066	     -0.22448951	    -18.91363969	      2.36816722	      4.33312707	     16.69715928	      1.08127625	      0.29142041	     10.97942374	     -4.11443164	     -7.89670451	     25.20681484	     -2.67852890	     -7.18370470	     12.97884529	      0.05233890	      0.22652358	     -2.44730832	      0.20802512	     -7.89670451	    -12.45180828	     -1.09238609	     10.75486021	     -1.30083814	    -11.98314616	      1.75574597	     50.59142110	     90.00000001	      0.00000000	      0.00000000	     -6.84511506	    -12.25862457	     -5.93380727	     25.62235740	     90.00000001	      0.00000000	      0.00000000
      0.48000000	      0.66893610	     -0.81061035	     -3.81955713	     -0.38328684	      0.93970387	     -0.22513670	    -18.38061805	      1.49258257	      4.00877741	     19.45028289	      1.26763672	      0.33947148	      9.04386795	     -5.13053683	     -7.88208176	     25.10495919	     -1.66779242	     -6.70319596	     14.56844327	     -0.16622391	      0.25426730	     -3.36365957	     -1.02189017	     -7.88208176	    -12.34540234	     -2.09582518	     10.35514468	     -1.43162301	    -11.53447608	      1.57771204	     49.95613654	     90.00000001	      0.00000000	      0.00000000	     -6.97707032	    -12.27877849	     -6.64118442	     24.67852371	     90.00000001	      0.00000000	      0.00000000
      0.49000000	      0.72456349	     -0.10092939	     -3.71881710	     -0.36701160	      0.94055405	     -0.22585460	    -17.64834295	      0.63022189	      3.59920860	     22.47642179	      1.44852595	      0.39228756	      6.74294955	     -6.37568600	     -7.86442332	     24.85966969	     -0.64888717	     -5.99640119	     15.98122604	     -0.26994699	      0.27892501	     -4.22805891	     -2.58016318	     -7.86442332	    -12.26748343	     -3.09295787	      9.86942589	     -1.60257477	    -11.06935754	      1.46263695	     49.26335907	     90.00000001	      0.00000000	      0.00000000	     -7.11332243	    -12.26490522	     -7.57880399	     23.88764502	     90.00000001	      0.00000000	      0.00000000
      0.50000000	      1.05928864	      0.51699262	     -3.63136846	     -0.35050664	      0.94210777	     -0.22644952	    -17.06482120	     -0.12174357	      2.98309025	     25.60095099	      1.43908313	      0.44682089	      4.03446803	     -7.34145099	     -7.85717162	     24.25444556	      0.24555501	     -5.69803566	     17.36021740	     -0.40974058	      0.30299295	     -4.42930562	     -3.26096212	     -7.85717162	    -12.49286557	     -4.00859999	      9.39313275	     -1.83098800	    -10.66283738	      1.43850117	     48.62269871	     90.00000001	      0.00000000	      0.00000000	     -7.33096161	    -12.36833198	     -7.89640318	     23.37128774	     90.00000001	      0.00000000	      0.00000000
      0.51000000	      1.21568443	      1.25908426	     -3.49757625	     -0.33422537	      0.94378502	     -0.22745673	    -16.02763401	     -1.06947106	      2.37710512	     29.00126217	      1.57555510	      0.50616751	      1.17636722	     -8.80123696	     -7.85188502	     23.69754648	      1.31742815	     -5.27859738	     18.43595534	     -0.50758591	      0.32176812	     -4.58584281	     -4.05854006	     -7.85188502	    -12.54402110	     -4.99067093	      8.84574203	     -2.12016914	    -10.28672512	      1.41138694	     47.95898199	     90.00000001	      0.00000000	      0.00000000	     -7.53363046	    -12.38384466	     -8.30490045	     23.00524259	     90.00000001	      0.00000000	      0.00000000
      0.52000000	      0.87585336	      1.95394816	     -3.23861929	     -0.31845741	      0.94514493	     -0.22870012	    -14.21604234	     -1.99014255	      2.09290540	     32.63669198	      2.01341179	      0.56961773	     -1.63906755	    -11.10362417	     -7.82364249	     23.49021323	      2.37811704	     -3.93300198	     19.15611953	     -0.34380693	      0.33433736	     -5.44435747	     -6.38565101	     -7.82364249	    -12.09131562	     -5.86044711	      8.15100087	     -2.45795323	     -9.90580170	      1.42867247	     47.21093167	     90.00000001	      0.00000000	      0.00000000	     -7.63235056	    -12.23710031	     -9.82833075	     22.58627535	     90.00000001	      0.00000000	      0.00000000
